<?xml version="1.0" encoding="utf-8"?>
<!-- Generator: Adobe Illustrator 24.0.1, SVG Export Plug-In . SVG Version: 6.00 Build 0)  -->
<svg version="1.1" id="katman_1" xmlns="http://www.w3.org/2000/svg" xmlns:xlink="http://www.w3.org/1999/xlink" x="0px" y="0px"
	 viewBox="0 0 337.5 141.7" style="enable-background:new 0 0 337.5 141.7;" xml:space="preserve">
<style type="text/css">
	.st0{fill:#0071CE;}
	.st1{fill:#54565A;}
	.st2{fill:#FFFFFF;}
</style>
<g>
	<path class="st2" d="M190.5,131.6l-11.4-81.2l-5.9-42.1c-0.7-4.7-4.8-8.3-9.5-8.3h-46.6c-6.4,0-12.5,3.1-16.4,8.2L0,141.7h114.6
		l22.6-29.9l4.2,29.9H192L190.5,131.6z M93.9,88.4L126.6,45l6.9,43.4H93.9z"/>
	<path class="st2" d="M222.7,72.6c-0.6,2.7-0.4,5.7,0.1,8.4c1.1,6.7,7.2,11.6,14.1,11.6h70.6l-16,49.1h-89.6l-0.2-1.4l-0.4-2.9
		l-2.6-18.7l-11.4-81.4C205.2,13.2,233.4,0,261.2,0h76.3l-16,49.1h-65.3l-2.9,0l-3.9,0C237,50,225.6,59,222.7,72.6z"/>
</g>
</svg>
